<?xml version="1.0" standalone="no"?>
<!DOCTYPE svg PUBLIC "-//W3C//DTD SVG 20010904//EN"
 "http://www.w3.org/TR/2001/REC-SVG-20010904/DTD/svg10.dtd">
<svg version="1.0" xmlns="http://www.w3.org/2000/svg"
 width="1800.000000pt" height="549.000000pt" viewBox="0 0 1800.000000 549.000000"
 preserveAspectRatio="xMidYMid meet">
<g transform="translate(0.000000,549.000000) scale(0.100000,-0.100000)"
fill="#000000" stroke="none">
<path d="M4107 5477 c-3 -8 -49 -41 -102 -73 -53 -33 -109 -67 -123 -76 -15
-10 -36 -22 -47 -28 -11 -6 -29 -16 -40 -23 -49 -30 -102 -63 -120 -74 -11 -7
-141 -85 -288 -175 -148 -90 -280 -171 -295 -180 -15 -9 -45 -26 -67 -37 -22
-12 -55 -30 -72 -41 l-33 -20 0 -240 0 -241 25 -24 c13 -14 31 -25 39 -25 8 0
38 -13 66 -30 28 -16 55 -30 60 -30 5 0 32 -13 60 -30 28 -16 57 -30 65 -30 8
0 16 -4 19 -9 3 -4 41 -25 83 -46 43 -20 107 -52 143 -70 l65 -33 -4 -693 -3
-694 18 -16 c11 -9 57 -37 104 -62 140 -73 223 -119 263 -144 21 -13 48 -28
60 -34 12 -5 36 -18 52 -29 37 -24 76 -42 82 -37 5 6 5 3248 0 3253 -3 3 -7
-2 -10 -9z m-394 -717 c23 0 62 -41 59 -61 -2 -9 4 -22 13 -29 l15 -12 0 -212
-1 -211 -19 -24 -20 -23 -55 4 -55 5 -24 26 c-14 15 -31 27 -38 27 -8 0 -21 8
-30 18 -41 42 -64 60 -84 66 -12 4 -26 18 -32 31 l-12 25 -18 0 -18 0 -12 34
c-7 19 -19 37 -27 40 l-15 5 0 35 0 34 15 6 c8 3 15 14 15 25 l0 20 53 50 52
51 95 49 95 48 16 -13 c8 -8 23 -14 32 -14z"/>
<path d="M4313 5353 l-13 -5 0 -1609 0 -1609 56 -36 c30 -19 59 -34 64 -32
l10 3 0 1603 1 1602 -13 13 c-38 36 -95 74 -105 70z"/>
<path d="M4580 5143 c-1 -5 -1 -719 0 -1588 l0 -1580 9 -3 c5 -2 28 -17 51
-33 23 -17 46 -29 52 -27 l11 4 -1 1569 c0 864 -1 1575 -1 1582 -1 6 -21 23
-46 37 -25 15 -45 31 -45 36 0 12 -30 14 -30 3z"/>
<path d="M4850 3398 l0 -1573 57 -33 c31 -18 62 -32 70 -30 l14 3 0 1555 -1
1555 -52 38 c-29 21 -54 42 -56 48 -2 5 -10 9 -18 9 l-14 0 0 -1572z"/>
<path d="M2860 4205 c-7 -8 -17 -15 -22 -15 -11 0 -72 -31 -298 -149 -85 -44
-162 -84 -170 -87 -13 -5 -172 -84 -227 -113 -10 -5 -53 -24 -95 -42 l-77 -34
-1 -141 0 -140 33 -17 c17 -9 55 -31 82 -47 28 -16 57 -33 65 -37 8 -4 40 -21
70 -39 120 -70 166 -96 196 -109 17 -8 36 -20 43 -29 l12 -14 2 -1587 2 -1588
208 0 c114 0 210 3 212 5 3 3 5 947 5 2099 l0 2094 -13 3 c-8 2 -20 -4 -27
-13z"/>
<path d="M1865 3421 c-33 -21 -82 -50 -110 -65 -49 -28 -256 -148 -285 -166
-8 -5 -37 -21 -65 -34 -27 -14 -57 -31 -65 -38 l-15 -13 5 -1450 5 -1450 -8
-19 -9 -18 -56 6 c-32 3 -321 6 -644 7 l-588 2 -15 -13 -15 -13 2 -66 3 -66
925 0 c509 0 942 -4 963 -8 l39 -8 11 10 12 9 -5 1713 -5 1712 -10 3 c-5 1
-37 -14 -70 -35z"/>
<path d="M15890 3313 c-36 -24 -40 -33 -40 -83 0 -50 4 -59 40 -83 34 -23 70
-21 104 8 l29 23 -1 53 -1 52 -28 23 c-33 28 -70 30 -103 7z"/>
<path d="M7705 3305 c-16 -8 -53 -14 -81 -15 l-52 0 -11 -14 c-7 -8 -11 -30
-9 -48 l3 -33 36 -3 36 -3 6 -157 c4 -86 5 -228 4 -316 l-2 -158 -38 -32 c-41
-34 -45 -47 -22 -70 l16 -15 112 0 c62 0 124 3 140 6 l27 5 0 22 c0 31 -20 54
-50 58 l-25 3 -1 380 c-1 209 -2 386 -3 393 l-1 12 -27 -1 c-16 0 -41 -7 -58
-14z"/>
<path d="M10380 3304 c-14 -7 -46 -14 -71 -14 l-46 0 -16 -18 c-34 -38 -15
-82 35 -82 l28 0 0 -319 0 -320 -35 -27 c-36 -27 -44 -51 -23 -72 l12 -12 120
0 c67 0 131 3 144 6 l22 6 0 23 c0 13 -3 30 -6 39 l-6 16 -33 0 -33 0 -3 13
c-2 6 -2 176 1 377 3 201 3 373 1 383 l-3 17 -32 -1 c-17 -1 -42 -7 -56 -15z"/>
<path d="M11384 3310 c-7 -7 -40 -14 -75 -17 -35 -3 -72 -10 -81 -15 l-18 -9
0 -34 0 -35 23 -4 c12 -3 31 -7 42 -8 l20 -3 1 -362 c2 -417 3 -421 79 -361
l27 21 58 -31 58 -32 46 0 c120 0 210 71 258 205 l18 49 0 74 0 74 -17 52 -18
51 -46 47 -47 47 -43 11 c-54 15 -98 8 -160 -24 l-48 -26 -6 11 c-4 5 -5 81
-3 167 l3 157 -30 3 c-17 2 -35 -2 -41 -8z m239 -404 l28 -22 14 -55 c18 -66
18 -138 1 -203 l-13 -49 -32 -33 -32 -34 -37 0 c-41 0 -60 11 -86 50 l-16 24
0 152 0 153 26 20 27 21 46 0 46 -1 28 -23z"/>
<path d="M12650 3304 c-14 -7 -48 -14 -77 -14 l-52 0 -15 -16 c-36 -36 -13
-84 41 -84 l33 0 0 -312 0 -313 -18 -21 c-9 -12 -27 -27 -39 -33 -27 -14 -29
-33 -7 -56 l16 -16 136 3 137 3 0 45 0 45 -30 0 -30 0 -2 380 c-1 209 -2 386
-2 393 l-1 12 -32 -1 c-18 -1 -44 -7 -58 -15z"/>
<path d="M14865 3308 c-11 -7 -49 -14 -85 -17 l-65 -6 -9 -28 -10 -28 10 -17
11 -17 32 -3 31 -3 2 -222 c1 -122 1 -265 -1 -317 l-2 -95 -37 -32 -36 -31 12
-26 12 -26 125 0 126 0 20 10 19 11 0 22 c0 31 -18 47 -51 47 l-28 0 -3 16
c-2 10 -1 179 2 378 3 199 4 369 2 379 l-4 17 -27 0 c-14 0 -35 -6 -46 -12z"/>
<path d="M15540 3304 c-14 -7 -45 -14 -70 -14 l-46 0 -22 -16 -23 -16 3 -26 3
-27 30 -9 c17 -5 36 -10 43 -12 l12 -3 0 -75 0 -75 -11 -6 c-6 -4 -31 -2 -55
5 l-45 13 -55 -12 -54 -13 -43 -32 c-212 -162 -136 -566 106 -566 38 0 127 35
127 50 0 16 28 11 38 -6 l9 -16 71 -6 c38 -2 86 -2 106 2 l36 7 0 27 c0 34
-16 52 -47 52 -29 0 -27 -35 -28 405 l0 380 -30 2 c-16 1 -41 -5 -55 -13z
m-85 -364 l15 -12 0 -172 0 -173 -25 -23 -25 -23 -45 -1 -45 -1 -30 31 -31 30
-15 63 -14 63 11 67 c16 91 47 144 99 164 22 9 89 1 105 -13z"/>
<path d="M6656 3265 c-9 -9 -16 -23 -16 -31 0 -8 -4 -22 -9 -32 -6 -9 -19 -46
-31 -82 -11 -36 -25 -74 -30 -85 -5 -11 -19 -49 -31 -85 -43 -126 -56 -160
-63 -167 -3 -3 -6 -13 -6 -21 0 -8 -6 -28 -14 -45 -7 -18 -24 -56 -36 -86 -23
-57 -39 -77 -82 -104 l-28 -17 0 -19 c0 -11 3 -26 6 -35 l6 -16 118 0 118 0
11 14 12 14 -9 34 -8 33 -30 5 c-34 6 -34 8 -11 81 l18 56 52 7 c29 3 85 6
124 6 l73 0 20 -42 c11 -23 20 -54 20 -69 l0 -27 -30 -25 -30 -26 0 -24 0 -25
23 -6 c29 -8 251 -8 271 0 l16 6 0 33 c0 31 -18 58 -36 54 -23 -4 -32 3 -39
29 -6 27 -60 169 -116 307 -15 39 -48 129 -74 200 -25 72 -53 146 -63 165
l-17 35 -31 3 -31 3 -17 -16z m58 -338 c21 -62 39 -123 40 -137 l1 -25 -73 2
c-41 1 -80 4 -89 7 l-15 6 8 32 c3 18 12 46 19 63 10 25 28 77 51 153 8 28 21
6 58 -101z"/>
<path d="M9685 3261 c-155 -52 -256 -179 -283 -355 l-10 -60 10 -74 9 -75 29
-61 28 -61 49 -46 c51 -50 84 -69 158 -95 l47 -15 81 4 c45 2 107 12 137 21
30 10 78 23 105 28 28 6 57 14 65 18 l15 7 0 118 1 118 18 11 c11 6 28 19 38
29 l19 18 -3 22 -3 22 -130 8 c-71 4 -140 5 -152 2 l-23 -5 0 -33 c0 -42 15
-57 57 -57 l34 0 -3 -101 -3 -101 -40 -14 c-22 -7 -68 -14 -101 -14 l-62 0
-35 15 c-84 35 -133 110 -152 235 l-14 85 10 70 c12 87 40 147 94 201 l42 41
45 7 c26 4 69 4 97 0 l50 -6 45 -45 45 -44 7 -34 c8 -43 25 -57 61 -53 l28 3
3 129 3 129 -13 9 c-23 14 -57 8 -77 -14 l-20 -21 -57 21 -56 22 -86 -1 c-48
-1 -96 -4 -107 -8z"/>
<path d="M13202 3248 c-7 -7 -12 -26 -12 -44 l0 -32 16 -6 c9 -3 29 -6 45 -6
l29 0 0 -293 0 -293 -15 -20 c-8 -12 -28 -27 -45 -34 l-31 -13 3 -31 3 -31
145 -3 c80 -1 155 0 168 3 l22 5 0 26 c0 14 -5 34 -10 45 l-11 19 -29 0 c-17
0 -30 3 -30 8 0 4 -3 58 -6 120 l-6 113 12 14 12 15 148 0 148 0 6 -16 c6 -16
-1 -187 -9 -229 l-4 -21 -41 -23 c-43 -24 -49 -40 -24 -65 l15 -16 139 0 c76
0 145 3 154 6 l16 6 0 25 c0 13 -5 33 -10 44 l-11 19 -29 0 -30 0 0 274 c0
150 3 288 6 305 l7 32 34 14 34 14 -3 38 -3 38 -140 3 c-77 1 -150 0 -162 -3
l-23 -5 0 -40 0 -40 13 -2 c6 -1 23 -2 37 -2 l25 -1 6 -125 6 -125 -10 -12 -9
-13 -143 0 -143 0 -12 15 -13 15 7 98 c4 53 10 107 13 119 l5 23 32 8 31 8 3
18 c2 10 1 28 -2 42 l-6 24 -153 0 -153 0 -12 -12z"/>
<path d="M7240 3158 c-6 -7 -23 -34 -39 -59 l-28 -46 -47 -22 -47 -22 3 -37 3
-37 35 -5 35 -5 5 -185 5 -185 16 -36 c9 -20 33 -49 53 -64 l36 -27 44 -5 44
-5 38 12 c54 17 113 58 130 92 l14 28 -12 20 c-17 26 -30 25 -66 -5 l-30 -25
-41 0 -40 0 -16 30 -15 30 2 162 3 163 67 3 66 3 6 25 c4 14 4 34 1 44 l-6 19
-67 3 -67 3 0 60 c0 72 -7 85 -45 85 -16 0 -34 -6 -40 -12z"/>
<path d="M17374 3131 c-31 -19 -74 -71 -74 -89 0 -5 -6 -15 -14 -21 l-13 -11
-43 15 c-145 51 -311 -39 -335 -182 l-7 -43 13 -37 c16 -49 45 -88 76 -102
l26 -12 -42 -35 c-23 -20 -48 -48 -56 -64 l-14 -27 11 -36 11 -37 18 -5 c32
-10 35 -55 4 -55 -19 0 -62 -55 -70 -89 l-6 -29 14 -35 c8 -19 31 -46 50 -61
l35 -27 63 -10 64 -11 83 6 83 6 57 24 57 24 43 42 42 42 0 55 0 55 -17 30
c-35 58 -144 98 -270 98 -72 0 -128 13 -152 35 l-13 13 21 21 21 21 84 0 83 0
44 20 c48 21 94 60 122 102 l17 27 0 71 0 70 -30 42 c-36 49 -36 48 -9 82 l20
26 33 -25 33 -25 34 23 34 23 3 30 3 31 -18 22 -18 22 -35 5 -35 5 -31 -20z
m-164 -213 l30 -41 0 -73 0 -73 -35 -36 c-41 -40 -57 -43 -101 -16 l-32 19
-16 48 c-37 108 8 214 91 214 l33 0 30 -42z m55 -551 l40 -14 14 -25 15 -26
-17 -25 c-32 -48 -117 -75 -201 -63 l-46 7 -35 33 -35 33 0 25 c0 14 10 38 22
53 l22 28 90 -6 c50 -4 109 -12 131 -20z"/>
<path d="M8110 3032 l-64 -16 -43 -42 -43 -41 0 -40 0 -40 23 -21 c31 -29 62
-28 94 4 l25 25 -6 29 -5 29 26 21 c14 11 37 20 50 20 l25 0 29 -29 29 -29 0
-55 0 -55 -16 -6 c-9 -3 -28 -6 -42 -6 -73 -1 -189 -55 -229 -107 l-28 -36 1
-63 2 -62 18 -27 c47 -66 137 -79 231 -33 l64 31 12 -15 12 -16 80 -6 c44 -3
90 -3 103 0 l22 6 0 28 c0 32 -14 47 -50 52 l-25 3 -1 170 -2 170 -11 40 -11
41 -32 31 -33 32 -60 15 c-68 18 -61 19 -145 -2z m138 -386 l3 -59 -22 -23
-22 -24 -40 0 -40 0 -19 17 -18 16 0 31 c1 53 69 108 130 103 l25 -2 3 -59z"/>
<path d="M8683 3031 c-85 -27 -143 -101 -143 -182 l0 -37 33 -42 c38 -50 61
-63 217 -125 80 -32 108 -77 70 -115 l-20 -20 -50 0 -51 0 -32 16 c-35 18 -63
47 -77 82 l-10 23 -32 -3 -33 -3 -3 -83 -3 -84 12 -14 c15 -18 48 -18 68 0
l16 15 55 -19 c197 -69 375 68 303 232 l-17 39 -46 28 c-47 30 -127 65 -170
75 -14 3 -40 15 -57 25 l-32 20 -7 27 -7 27 28 25 29 24 43 -5 43 -5 36 -27
c21 -16 42 -41 48 -57 l11 -29 24 -6 c13 -3 31 -1 40 4 l16 10 3 83 3 82 -12
14 c-14 17 -53 18 -78 2 l-19 -12 -61 17 c-71 20 -71 20 -138 -2z"/>
<path d="M10825 3031 c-72 -30 -103 -50 -139 -92 l-35 -42 -22 -64 -21 -65 4
-67 3 -67 30 -58 c35 -68 80 -109 153 -136 l53 -20 54 0 54 0 38 17 c21 10 56
32 78 49 l41 32 29 58 30 59 3 92 4 92 -32 64 -31 64 -47 35 -47 36 -66 16
c-77 19 -82 19 -134 -3z m130 -103 l35 -33 15 -58 c19 -75 19 -165 -1 -233
l-15 -54 -26 -20 -26 -20 -36 0 -37 0 -26 28 c-36 38 -44 57 -58 139 l-13 72
13 63 c20 98 59 147 118 148 l22 0 35 -32z"/>
<path d="M12115 3034 c-97 -22 -150 -60 -167 -120 l-9 -34 12 -22 c26 -50 68
-61 107 -29 l22 19 0 41 0 40 30 16 c40 21 64 19 96 -8 l27 -23 5 -52 5 -52
-13 -15 c-7 -8 -26 -15 -42 -15 -17 0 -61 -9 -98 -21 l-68 -20 -41 -35 -41
-35 -11 -41 -11 -41 7 -48 7 -49 29 -24 c69 -58 163 -56 251 6 l17 12 19 -17
19 -17 91 -3 91 -2 12 12 13 13 -10 27 -9 28 -32 3 -31 3 -3 199 -4 198 -31
39 -31 38 -44 16 c-69 25 -99 28 -164 13z m123 -388 l3 -59 -22 -23 -22 -24
-39 0 c-50 0 -74 13 -82 45 l-6 25 15 31 16 30 42 19 c23 11 53 18 67 17 l25
-2 3 -59z"/>
<path d="M14292 3032 l-54 -15 -47 -43 c-26 -23 -60 -66 -76 -96 l-30 -53 0
-105 1 -105 23 -43 c103 -189 378 -202 489 -24 l29 47 13 63 13 62 -6 53 c-3
28 -11 70 -18 92 l-11 39 -57 56 -57 55 -69 18 c-80 20 -73 20 -143 -1z m127
-99 c16 -16 36 -47 45 -71 l16 -42 0 -106 0 -105 -20 -39 c-24 -46 -45 -60
-95 -60 l-36 0 -29 31 -28 31 -16 57 c-9 32 -16 89 -16 127 l1 69 27 55 27 55
25 12 c39 20 67 15 99 -14z"/>
<path d="M16505 3034 c-22 -8 -52 -21 -67 -29 -35 -20 -47 -19 -68 7 l-17 22
-49 -13 c-27 -7 -69 -15 -94 -18 -87 -10 -102 -83 -20 -95 l25 -3 3 -170 2
-170 -25 -27 c-14 -16 -30 -28 -35 -28 -6 0 -10 -13 -10 -30 l0 -30 23 -5 c12
-3 77 -4 145 -3 l123 3 8 14 c5 7 5 25 2 40 l-7 26 -32 3 c-18 2 -32 9 -33 15
0 7 0 86 -1 177 l0 164 27 23 26 23 49 0 48 0 26 -31 26 -31 0 -158 0 -159
-35 -27 c-36 -27 -44 -54 -22 -72 l13 -11 137 6 137 6 5 18 c4 10 1 27 -5 39
l-11 20 -29 0 -30 0 -5 23 c-2 12 -6 103 -7 203 l-3 181 -28 37 c-29 38 -51
50 -116 65 l-36 8 -40 -13z"/>
<path d="M17643 3027 c-45 -17 -95 -65 -116 -113 l-19 -41 7 -35 c12 -63 88
-148 133 -148 20 0 178 -73 190 -88 17 -23 15 -56 -6 -75 l-19 -17 -54 0 c-30
1 -63 6 -75 13 -42 25 -74 55 -84 81 l-10 27 -32 -3 -33 -3 0 -90 0 -90 27 -9
27 -10 19 17 19 17 58 -20 c32 -11 78 -20 101 -20 l43 0 57 27 57 27 16 29 c9
17 24 38 34 49 l17 18 0 35 0 35 -15 0 c-8 0 -15 7 -15 15 0 22 -63 87 -102
106 -60 30 -106 49 -117 49 -22 0 -90 40 -101 59 -15 29 -13 39 15 66 l24 25
36 0 c61 0 125 -42 145 -95 l10 -25 35 0 35 0 5 23 c3 12 5 54 3 92 l-3 70
-38 3 c-21 2 -44 -2 -51 -7 l-13 -11 -43 15 c-50 18 -122 18 -167 2z"/>
<path d="M15910 3015 c-19 -7 -53 -14 -75 -14 -22 -1 -46 -5 -53 -10 l-13 -8
3 -34 3 -34 35 -5 35 -5 3 -120 c2 -66 0 -145 -3 -175 l-7 -54 -34 -31 c-39
-36 -43 -59 -14 -75 l20 -11 126 3 127 3 10 16 10 16 -7 26 -6 27 -24 0 c-13
0 -29 7 -36 15 l-13 16 7 220 7 220 -12 15 c-14 17 -43 17 -89 -1z"/>
<path d="M3137 2483 c-11 -10 -8 -222 3 -242 5 -10 33 -31 62 -47 29 -15 78
-41 108 -56 30 -16 100 -53 155 -83 55 -29 146 -77 201 -106 136 -72 218 -116
284 -152 30 -16 89 -48 130 -70 144 -77 196 -105 355 -192 88 -49 203 -111
255 -139 87 -46 152 -81 220 -119 129 -71 273 -147 279 -147 5 0 14 -7 21 -15
7 -8 19 -15 27 -15 8 0 27 -8 41 -19 25 -18 50 -31 197 -110 33 -18 74 -41 90
-51 17 -10 57 -32 90 -49 33 -17 119 -66 192 -110 l131 -79 11 11 11 11 0 115
c0 141 6 131 -121 195 -57 29 -123 64 -147 77 -24 13 -74 40 -110 60 -37 19
-103 55 -147 79 -44 23 -107 57 -140 75 -33 18 -82 45 -110 60 -27 15 -88 48
-135 72 -47 25 -119 64 -160 86 -41 22 -88 47 -105 55 -16 9 -32 18 -35 21 -3
3 -23 15 -45 26 -22 10 -80 42 -130 69 -49 27 -124 67 -165 89 -41 22 -95 51
-120 65 -25 13 -74 40 -110 60 -36 19 -85 46 -109 59 -25 14 -106 56 -180 95
-75 39 -140 74 -146 78 -5 4 -55 31 -110 61 -101 53 -118 62 -190 103 -22 12
-67 37 -100 55 -33 19 -67 40 -76 47 -8 8 -19 14 -23 14 -5 0 -34 16 -66 35
-59 36 -72 40 -83 28z"/>
<path d="M10873 1954 c-18 -8 -33 -19 -33 -24 0 -6 -6 -10 -14 -10 -7 0 -21
-11 -30 -25 l-16 -24 0 -57 0 -57 43 -41 c24 -23 66 -52 93 -66 27 -14 64 -38
82 -54 l32 -30 0 -41 0 -42 -21 -24 -21 -24 -74 1 -75 1 -18 17 c-40 36 -77 6
-47 -39 l16 -25 26 0 c14 0 38 -7 55 -15 l29 -16 50 7 c28 4 53 11 56 15 3 5
13 9 22 9 9 0 34 15 55 33 l39 32 8 43 c4 24 4 59 0 79 l-8 35 -39 34 c-21 19
-66 50 -100 69 -34 20 -76 52 -92 72 l-31 38 0 27 0 27 21 15 22 15 51 -6 c28
-3 61 -13 73 -20 12 -8 32 -13 45 -11 l23 3 0 34 0 34 -50 13 c-64 17 -131 16
-172 -2z"/>
<path d="M17257 1959 c-52 -12 -100 -51 -122 -99 l-18 -39 17 -41 c20 -50 61
-89 136 -129 31 -17 70 -44 88 -61 l32 -30 0 -29 c0 -17 -4 -41 -10 -55 l-9
-25 -40 -11 -41 -11 -50 7 c-28 4 -53 11 -56 15 -3 5 -18 9 -35 9 l-29 0 0
-19 c0 -26 26 -51 55 -51 12 0 36 -7 51 -15 l29 -15 45 6 c25 4 68 17 95 30
l50 24 24 35 24 36 -1 44 0 44 -18 30 c-17 29 -63 64 -161 125 -23 14 -53 38
-67 53 l-26 28 0 37 0 37 20 11 20 11 52 -7 c29 -4 63 -13 75 -21 12 -8 32
-13 45 -11 l23 3 3 24 c7 50 -103 83 -201 60z"/>
<path d="M6884 1943 l-19 -18 5 -265 5 -265 45 0 45 0 3 270 2 270 -17 13
c-23 17 -47 15 -69 -5z"/>
<path d="M8031 1951 l-14 -9 2 -181 2 -181 -9 0 c-8 0 -93 105 -246 306 l-48
64 -38 0 -38 0 -4 -17 c-2 -10 -4 -135 -4 -278 l1 -260 26 -3 26 -3 9 13 10
13 -7 190 c-7 211 -4 222 36 168 16 -21 32 -40 36 -43 4 -3 32 -37 61 -76 29
-39 72 -95 96 -125 50 -64 50 -64 86 -112 l29 -37 13 11 14 12 -2 275 -3 275
-10 4 c-5 1 -16 -1 -24 -6z"/>
<path d="M8689 1944 l-13 -16 12 -16 c7 -10 15 -24 18 -32 3 -8 20 -44 36 -80
38 -83 58 -128 73 -165 7 -16 22 -51 34 -76 12 -25 21 -50 21 -54 0 -19 64
-135 73 -132 12 4 19 16 42 77 21 55 43 106 62 142 7 14 13 34 13 45 0 10 7
27 15 37 8 11 15 28 15 37 0 10 8 32 17 51 9 18 22 45 30 60 7 14 13 34 13 44
0 9 7 25 16 35 l16 18 -7 20 c-7 23 -26 27 -56 11 l-19 -11 0 -22 c0 -12 -7
-31 -15 -41 -8 -11 -15 -27 -15 -37 0 -9 -7 -30 -15 -45 -8 -16 -15 -38 -15
-49 0 -11 -7 -29 -15 -39 -8 -11 -15 -27 -15 -37 0 -9 -7 -30 -15 -45 -8 -16
-15 -39 -15 -50 0 -12 -7 -25 -16 -28 -22 -8 -21 -9 -27 23 -4 16 -18 53 -32
82 -14 29 -25 57 -25 62 0 5 -7 25 -16 45 -9 21 -22 52 -30 70 -8 18 -14 38
-14 45 0 7 -11 28 -24 47 l-23 34 -36 2 -36 3 -12 -15z"/>
<path d="M9796 1940 l-12 -15 2 -255 c1 -140 2 -261 3 -268 l1 -12 173 2 172
3 3 27 3 27 -21 11 -22 12 -72 -17 c-39 -9 -89 -15 -111 -13 l-40 3 0 105 0
105 75 3 c93 3 120 9 120 26 0 21 -23 26 -116 26 l-85 0 3 93 3 92 84 3 84 3
11 -11 c12 -12 76 -13 76 -1 0 5 3 16 6 24 3 8 -3 22 -12 31 l-17 18 -149 -4
-149 -3 -13 -15z"/>
<path d="M11725 1943 c-9 -9 -14 -22 -11 -30 3 -8 6 -19 6 -24 0 -12 57 -12
65 1 3 6 28 10 55 10 l50 0 2 -252 3 -253 48 -3 47 -3 1 13 c1 7 0 122 -1 256
l-2 242 46 0 47 0 24 -16 24 -15 20 20 c56 56 32 64 -206 67 l-203 3 -15 -16z"/>
<path d="M12820 1950 l-25 -6 -7 -109 c-3 -61 -11 -148 -17 -195 -5 -47 -10
-122 -10 -167 l-1 -83 24 0 24 0 7 18 c4 9 9 98 12 197 2 99 7 187 9 195 l5
14 40 -81 c21 -46 39 -85 39 -87 0 -3 11 -29 24 -58 44 -95 66 -150 66 -163 0
-13 21 -25 45 -25 l13 0 7 32 c4 17 18 51 31 76 13 25 24 49 24 55 0 5 13 37
29 71 15 33 39 85 51 114 41 93 50 70 56 -148 3 -91 7 -175 10 -187 l4 -23 45
0 44 0 6 19 c3 11 -1 78 -10 151 -8 73 -15 184 -15 248 0 133 -2 137 -51 145
l-36 5 -22 -28 c-11 -16 -21 -32 -21 -35 0 -5 -8 -25 -50 -120 -5 -11 -16 -38
-25 -60 -9 -22 -23 -53 -30 -70 -8 -16 -19 -42 -24 -57 -20 -54 -27 -45 -133
197 -74 170 -82 179 -138 165z"/>
<path d="M14115 1951 l-60 -6 0 -275 0 -275 170 0 170 0 3 32 3 32 -24 6 c-14
4 -54 -1 -90 -10 -36 -9 -83 -15 -104 -13 l-38 3 0 105 0 105 88 3 88 3 6 15
6 16 -14 9 c-8 5 -51 9 -96 9 l-83 0 0 73 c0 39 3 82 6 95 l7 23 81 -4 c44 -3
98 -8 118 -12 l37 -7 7 28 7 27 -17 12 -17 13 -97 -1 c-53 0 -124 -3 -157 -6z"/>
<path d="M15437 1953 c-4 -3 -7 -92 -7 -197 l-1 -191 -12 16 c-7 9 -27 34 -44
55 -54 68 -171 217 -205 264 l-34 45 -40 0 -39 0 -8 -265 c-4 -145 -5 -270 -3
-277 l5 -13 30 0 c39 0 38 -3 33 218 -3 105 -1 192 3 192 13 0 134 -147 265
-323 l65 -87 18 0 c9 0 17 6 17 13 0 6 2 125 4 262 3 277 -6 330 -47 288z"/>
<path d="M16112 1949 l-23 -9 3 -27 3 -28 24 -3 c13 -2 34 1 46 8 12 6 39 10
61 8 l39 -3 2 -235 c1 -129 2 -243 2 -252 l1 -18 39 0 40 0 8 13 c4 6 8 120 8
252 l0 240 42 3 42 3 24 -16 24 -15 17 6 16 6 0 34 c0 19 -3 35 -7 35 -41 7
-394 5 -411 -2z"/>
<path d="M3518 1783 c-2 -5 0 -105 3 -223 4 -118 7 -511 7 -874 l0 -658 9 -8
c4 -4 67 -3 138 2 l130 10 1140 -7 c627 -4 1182 -10 1234 -13 l94 -7 18 13 19
13 0 69 0 69 -14 8 c-8 4 -88 5 -178 1 -221 -8 -739 -11 -747 -3 -3 4 -4 145
-2 313 l3 307 -83 43 c-142 72 -372 195 -534 285 -49 28 -142 77 -205 110 -63
33 -126 68 -140 77 -14 9 -47 28 -75 41 -27 13 -72 37 -100 53 -27 16 -99 54
-160 86 -60 32 -135 72 -165 90 -30 18 -93 53 -140 77 -47 25 -92 51 -101 59
-8 8 -19 14 -23 14 -4 0 -27 14 -51 30 -43 29 -70 37 -77 23z m649 -653 c24
-16 46 -30 48 -30 2 0 32 -16 65 -36 l62 -36 -5 -125 c-3 -69 -9 -129 -14
-134 -10 -10 -205 -15 -221 -5 l-12 7 0 195 0 194 16 0 c9 0 36 -13 61 -30z
m297 -165 c3 -8 14 -15 24 -15 11 0 25 -7 32 -15 7 -8 20 -15 30 -15 10 0 23
-7 30 -15 7 -8 19 -15 26 -15 7 0 20 -10 28 -22 l15 -23 -3 -38 c-2 -21 -7
-42 -12 -47 l-9 -9 -110 7 -110 7 -3 108 -3 107 30 0 29 0 6 -15z m-142 -294
c4 -3 8 -64 9 -135 l2 -129 -18 -13 -19 -14 -97 0 -97 0 -6 16 c-3 9 -6 73 -6
143 l0 127 11 11 11 11 102 -5 c55 -3 104 -8 108 -12z m319 -116 c3 -72 2
-140 -3 -152 l-8 -23 -104 0 -104 0 -11 14 -12 14 3 133 3 134 55 6 c30 3 82
6 115 5 l60 -1 6 -130z m338 -164 l20 -20 2 -63 c2 -35 0 -68 -4 -75 l-7 -11
-65 2 c-74 2 -70 0 -78 43 l-6 33 20 18 20 19 -7 16 -6 15 19 10 c10 5 24 7
30 5 7 -3 16 2 19 11 8 21 20 20 43 -3z"/>
</g>
</svg>
